<?xml version="1.0" standalone="no"?>
<!DOCTYPE svg PUBLIC "-//W3C//DTD SVG 1.1//EN" "http://www.w3.org/Graphics/SVG/1.1/DTD/svg11.dtd" >
<svg xmlns="http://www.w3.org/2000/svg">
<metadata>Generated by IcoMoon</metadata>
<defs>
<font id="icomoon" horiz-adv-x="1024">
<font-face units-per-em="1024" ascent="960" descent="-64" />
<missing-glyph horiz-adv-x="1024" />
<glyph unicode="&#x20;" horiz-adv-x="512" d="" />
<glyph unicode="&#xe900;" glyph-name="Play-Icon-2" d="M512 960c70.827 0 137.387-13.44 199.68-40.32s116.48-63.36 162.56-109.44c46.080-46.080 82.56-100.267 109.44-162.56s40.32-128.853 40.32-199.68c0-69.973-13.44-136.107-40.32-198.4s-63.36-116.693-109.44-163.2c-46.080-46.507-100.267-83.2-162.56-110.080s-128.853-40.32-199.68-40.32c-69.973 0-136.107 13.44-198.4 40.32s-116.693 63.573-163.2 110.080-83.2 100.907-110.080 163.2c-26.88 62.293-40.32 128.427-40.32 198.4 0 70.827 13.44 137.387 40.32 199.68s63.573 116.48 110.080 162.56c46.507 46.080 100.907 82.56 163.2 109.44s128.427 40.32 198.4 40.32zM366.555 702.903v-509.806l400.347 254.903-400.347 254.903z" />
<glyph unicode="&#xe901;" glyph-name="image" d="M0 960v-1024h1024v1024h-1024zM877.714 82.286h-731.429v731.429h731.429v-731.429zM243.81 716.19v-170.667c0 53.638 43.886 97.524 97.524 97.524s97.524-43.886 97.524-97.524c0-53.638-43.886-97.524-97.524-97.524s-97.524 43.886-97.524 97.524v-351.086l146.286 180.419 68.267-68.267 175.543 263.314 146.286-263.314v409.6h-536.381z" />
<glyph unicode="&#xe902;" glyph-name="video" d="M0 960v-1024h1024v1024h-1024zM877.714 131.048c0-29.257-19.505-48.762-48.762-48.762h-633.905c-29.257 0-48.762 19.505-48.762 48.762v633.905c0 29.257 19.505 48.762 48.762 48.762h633.905c29.257 0 48.762-19.505 48.762-48.762v-633.905zM365.714 204.19l341.333 243.81-341.333 243.81z" />
<glyph unicode="&#xe903;" glyph-name="book" d="M896 819.2v-832h-672c-53.026 0-96 42.98-96 96s42.974 96 96 96h608v768h-640c-70.398 0-128-57.6-128-128v-768c0-70.4 57.602-128 128-128h768v896h-64zM224.056 115.2v0c-0.018-0.002-0.038 0-0.056 0-17.672 0-32-14.326-32-32s14.328-32 32-32c0.018 0 0.038 0.002 0.056 0.002v-0.002h607.89v64h-607.89z" />
<glyph unicode="&#xe904;" glyph-name="caret" d="M512 960c-282.819 0-512-229.181-512-512s229.181-512 512-512 512 229.181 512 512c0 282.819-229.181 512-512 512zM755.81 379.733l-292.571-292.571-68.267 68.267 292.571 292.571-292.571 292.571 68.267 68.267 360.838-360.838-68.267-68.267z" />
<glyph unicode="&#xe905;" glyph-name="uniE905" d="M682.667 569.905c0-161.583-130.989-292.571-292.571-292.571s-292.571 130.989-292.571 292.571c0 161.583 130.989 292.571 292.571 292.571s292.571-130.989 292.571-292.571z" />
<glyph unicode="&#xe906;" glyph-name="zoom-in" d="M765.562 280.747s-23.893 6.339-23.893 6.827l-43.886 43.398c51.37 64.859 82.408 147.863 82.408 238.117 0 0.287 0 0.574-0.001 0.861v-0.045c0 215.444-174.652 390.095-390.095 390.095s-390.095-174.652-390.095-390.095c0-215.444 174.652-390.095 390.095-390.095v0c0.242-0.001 0.53-0.001 0.817-0.001 90.253 0 173.257 31.038 238.92 83.022l-0.804-0.614 43.398-43.886c2.299-6.256 4.646-14.247 6.538-22.414l0.289-1.48 258.438-258.438 86.309 86.309zM390.095 277.333c-161.583 0-292.571 130.989-292.571 292.571s130.989 292.571 292.571 292.571c161.583 0 292.571-130.989 292.571-292.571v0c0-161.583-130.989-292.571-292.571-292.571v0zM560.762 533.333h-134.095v-134.095h-73.143v134.095h-134.095v73.143h134.095v134.095h73.143v-134.095h134.095z" />
<glyph unicode="&#xe907;" glyph-name="record" d="M512 960c-7.279 0.37-15.806 0.58-24.381 0.58-283.090 0-512.58-229.49-512.58-512.58 0-274.515 215.797-498.627 487.006-511.953l1.193-0.047v146.286c-164.141 23.156-292.176 152.352-313.343 315.111l-0.196 1.842h97.524c23.655-125.647 132.533-219.429 263.314-219.429s239.66 93.782 263.053 217.764l0.261 1.664h97.524c-22.804-163.164-150.375-290.735-311.608-313.317l-1.931-0.222v-146.286c256.798 30.026 454.196 246.324 454.196 508.727 0 278.562-222.458 505.165-499.411 511.848l-0.621 0.012zM646.095 423.619c0-74.059-60.036-134.095-134.095-134.095s-134.095 60.036-134.095 134.095v0 292.571c0 74.059 60.036 134.095 134.095 134.095s134.095-60.036 134.095-134.095v0z" />
<glyph unicode="&#xe908;" glyph-name="stop" d="M512 960c-282.77 0-512-229.23-512-512s229.23-512 512-512c282.77 0 512 229.23 512 512v0c0 282.77-229.23 512-512 512v0zM731.429 277.333c0-26.93-21.831-48.762-48.762-48.762v0h-341.333c-26.93 0-48.762 21.831-48.762 48.762v0 341.333c0 26.93 21.831 48.762 48.762 48.762v0h341.333c26.93 0 48.762-21.831 48.762-48.762v0z" />
<glyph unicode="&#xe909;" glyph-name="pause" d="M512 960c-282.77 0-512-229.23-512-512s229.23-512 512-512c282.77 0 512 229.23 512 512v0c0 282.77-229.23 512-512 512v0zM438.857 204.19c0-26.93-21.831-48.762-48.762-48.762v0h-97.524c-26.93 0-48.762 21.831-48.762 48.762v0 487.619c0 26.93 21.831 48.762 48.762 48.762v0h97.524c26.93 0 48.762-21.831 48.762-48.762v0zM780.19 204.19c0-26.93-21.831-48.762-48.762-48.762v0h-97.524c-26.93 0-48.762 21.831-48.762 48.762v0 487.619c0 26.93 21.831 48.762 48.762 48.762v0h97.524c26.93 0 48.762-21.831 48.762-48.762v0z" />
<glyph unicode="&#xe90a;" glyph-name="caret-lite" horiz-adv-x="709" d="M534.836 352.525l-405.774-405.842-95.536 95.536 405.842 405.774-405.842 405.774 95.536 95.536 501.31-501.31z" />
<glyph unicode="&#xe90b;" glyph-name="delete-audio" d="M512 960c-282.77 0-512-229.23-512-512s229.23-512 512-512c282.77 0 512 229.23 512 512v0c0 282.77-229.23 512-512 512v0zM787.992 277.333c4.31-4.394 6.969-10.42 6.969-17.067s-2.66-12.673-6.973-17.071l-69.238-69.238c-4.394-4.31-10.42-6.969-17.067-6.969s-12.673 2.66-17.071 6.973l0.004-0.004-172.617 170.667-170.667-172.617c-4.394-4.31-10.42-6.969-17.067-6.969s-12.673 2.66-17.071 6.973l0.004-0.004-71.192 69.242c-4.31 4.394-6.969 10.42-6.969 17.067s2.66 12.673 6.973 17.071l172.613 172.613-172.617 170.667c-4.31 4.394-6.969 10.42-6.969 17.067s2.66 12.673 6.973 17.071l-0.004-0.004 69.242 71.192c4.394 4.31 10.42 6.969 17.067 6.969s12.673-2.66 17.071-6.973l172.613-172.613 170.667 172.617c4.394 4.31 10.42 6.969 17.067 6.969s12.673-2.66 17.071-6.973l69.238-69.238c4.31-4.394 6.969-10.42 6.969-17.067s-2.66-12.673-6.973-17.071l0.004 0.004-170.667-172.617z" />
<glyph unicode="&#xe90c;" glyph-name="caret-down" d="M414.497 240.787l-414.497 414.428 97.572 97.572 414.428-414.495 414.428 414.495 97.572-97.572-512-512z" />
<glyph unicode="&#xe90d;" glyph-name="caret-up" d="M609.503 655.213l414.497-414.428-97.572-97.572-414.428 414.495-414.428-414.495-97.572 97.572 512 512z" />
<glyph unicode="&#xe910;" glyph-name="digging-deeper-button-1-1" d="M819.2 638.171l-112.152 112.152c-9.752 9.752-19.505 14.629-29.257 14.629s-19.505-4.876-29.257-9.752l-53.638-58.514c-34.133-34.133-34.133-82.895 0-112.152l9.752-14.629-146.286-146.286c-48.762 53.638-78.019 97.524-78.019 97.524-4.876 4.876-9.752 9.752-14.629 9.752s-9.752 0-19.505-9.752l-117.029-117.029c-63.39-63.39-29.257-209.676 0-238.933 19.505-14.629 78.019-34.133 136.533-34.133 39.010 0 78.019 9.752 107.276 34.133l117.029 117.029c9.752 9.752 9.752 24.381 0 34.133 0 0-43.886 24.381-97.524 78.019l146.286 146.286 9.752-9.752c14.629-14.629 34.133-24.381 53.638-24.381s43.886 9.752 53.638 24.381l53.638 53.638c24.381 14.629 24.381 39.010 9.752 53.638zM526.629 296.838l-97.524-97.524c-9.752-14.629-34.133-19.505-63.39-19.505-43.886 0-87.771 14.629-97.524 19.505-14.629 24.381-39.010 131.657 0 165.79l97.524 97.524c14.629-19.505 34.133-43.886 58.514-73.143l-68.267-63.39c-9.752-9.752-9.752-24.381 0-34.133 4.876-4.876 9.752-9.752 19.505-9.752 4.876 0 9.752 0 19.505 9.752l63.39 63.39c24.381-24.381 48.762-43.886 68.267-58.514zM726.552 560.152c-4.876-4.876-14.629-9.752-19.505-9.752s-19.505 9.752-24.381 9.752l-58.514 58.514c-4.876 4.876-9.752 14.629-9.752 19.505 0 9.752 4.876 14.629 9.752 19.505l48.762 48.762 97.524-97.524-43.886-48.762zM0.293 959.512h1024.634v-93.769h-1024.634v93.769zM0.731 30.549h1024.634v-93.769h-1024.634v93.769zM0.585 866.865h105.423v-845.141h-105.423v845.141zM920.137 866.816h105.423v-854.747h-105.423v854.747z" />
<glyph unicode="&#xe922;" glyph-name="file-text" d="M864 960h-768c-52.8 0-96-43.2-96-96v-832c0-52.8 43.2-96 96-96h768c52.8 0 96 43.2 96 96v832c0 52.8-43.2 96-96 96zM832 64h-704v768h704v-768zM256 512h448v-64h-448zM256 384h448v-64h-448zM256 256h448v-64h-448zM256 640h448v-64h-448z" />
<glyph unicode="&#xe98b;" glyph-name="enlarge" d="M1024 960v-416l-160 160-192-192-96 96 192 192-160 160zM448 288l-192-192 160-160h-416v416l160-160 192 192z" />
<glyph unicode="&#xe98c;" glyph-name="shrink" d="M448 384v-416l-160 160-192-192-96 96 192 192-160 160zM1024 864l-192-192 160-160h-416v416l160-160 192 192z" />
<glyph unicode="&#xea0a;" glyph-name="plus" d="M992 576h-352v352c0 17.672-14.328 32-32 32h-192c-17.672 0-32-14.328-32-32v-352h-352c-17.672 0-32-14.328-32-32v-192c0-17.672 14.328-32 32-32h352v-352c0-17.672 14.328-32 32-32h192c17.672 0 32 14.328 32 32v352h352c17.672 0 32 14.328 32 32v192c0 17.672-14.328 32-32 32z" />
<glyph unicode="&#xea0f;" glyph-name="cross" d="M1014.662 137.34c-0.004 0.004-0.008 0.008-0.012 0.010l-310.644 310.65 310.644 310.65c0.004 0.004 0.008 0.006 0.012 0.010 3.344 3.346 5.762 7.254 7.312 11.416 4.246 11.376 1.824 24.682-7.324 33.83l-146.746 146.746c-9.148 9.146-22.45 11.566-33.828 7.32-4.16-1.55-8.070-3.968-11.418-7.31 0-0.004-0.004-0.006-0.008-0.010l-310.648-310.652-310.648 310.65c-0.004 0.004-0.006 0.006-0.010 0.010-3.346 3.342-7.254 5.76-11.414 7.31-11.38 4.248-24.682 1.826-33.83-7.32l-146.748-146.748c-9.148-9.148-11.568-22.452-7.322-33.828 1.552-4.16 3.97-8.072 7.312-11.416 0.004-0.002 0.006-0.006 0.010-0.010l310.65-310.648-310.65-310.652c-0.002-0.004-0.006-0.006-0.008-0.010-3.342-3.346-5.76-7.254-7.314-11.414-4.248-11.376-1.826-24.682 7.322-33.83l146.748-146.746c9.15-9.148 22.452-11.568 33.83-7.322 4.16 1.552 8.070 3.97 11.416 7.312 0.002 0.004 0.006 0.006 0.010 0.010l310.648 310.65 310.648-310.65c0.004-0.002 0.008-0.006 0.012-0.008 3.348-3.344 7.254-5.762 11.414-7.314 11.378-4.246 24.684-1.826 33.828 7.322l146.746 146.748c9.148 9.148 11.57 22.454 7.324 33.83-1.552 4.16-3.97 8.068-7.314 11.414z" />
<glyph unicode="&#xea10;" glyph-name="checkmark" d="M864 832l-480-480-224 224-160-160 384-384 640 640z" />
<glyph unicode="&#xea11;" glyph-name="checkmark2" d="M397.434 42.304l-397.868 391.6 197.378 194.27 200.49-197.332 429.62 422.852 197.378-194.27-626.998-617.12zM107.912 433.904l289.524-284.962 518.656 510.482-89.036 87.632-429.62-422.852-200.49 197.334-89.034-87.634z" />
<glyph unicode="&#xea56;" glyph-name="radio-unchecked" d="M512 960c-282.77 0-512-229.23-512-512s229.23-512 512-512 512 229.23 512 512-229.23 512-512 512zM512 64c-212.078 0-384 171.922-384 384s171.922 384 384 384c212.078 0 384-171.922 384-384s-171.922-384-384-384z" />
</font>
</defs>
</svg>
